# AST/ASF file generated using VICON BodyLanguage
# -----------------------------------------------
:version 1.10
:name VICON
:units
  mass 1.0
  length 0.45
  angle deg
:documentation
   .ast/.asf automatically generated from VICON data using
   VICON BodyBuilder and BodyLanguage model FoxedUp or BRILLIANT.MOD
:root
   order TX TY TZ RX RY RZ
   axis XYZ
   position 0 0 0  
   orientation 0 0 0 
:bonedata
  begin
     id 1 
     name lhipjoint
     direction 0.575328 -0.747301 0.332475 
     length 2.40933 
     axis 0 0 0  XYZ
  end
  begin
     id 2 
     name lfemur
     direction 0.34202 -0.939693 0  
     length 7.31453  
     axis 0 0 20  XYZ
    dof rx ry rz
    limits (-160.0 20.0)
           (-70.0 70.0)
           (-60.0 70.0)
  end
  begin
     id 3 
     name ltibia
     direction 0.34202 -0.939693 0   
     length 7.82185   
     axis 0 0 20   XYZ
    dof rx
    limits (-10.0 170.0)
  end
  begin
     id 4 
     name lfoot
     direction 0.0795993 -0.218697 0.972541   
     length 2.19173   
     axis -90 7.62852e-016 20   XYZ
    dof rx rz
    limits (-45.0 90.0)
           (-70.0 20.0)
  end
  begin
     id 5 
     name ltoes
     direction 1.53537e-011 -4.21894e-011 1   
     length 1.10023   
     axis -90 7.62852e-016 20   XYZ
    dof rx
    limits (-90.0 20.0)
  end
  begin
     id 6 
     name rhipjoint
     direction -0.513884 -0.783789 0.348708   
     length 2.29716  
     axis 0 0 0  XYZ 
  end
  begin
     id 7 
     name rfemur
     direction -0.34202 -0.939693 0   
     length 7.59573   
     axis 0 0 -20   XYZ
    dof rx ry rz
    limits (-160.0 20.0)
           (-70.0 70.0)
           (-70.0 60.0)
  end
  begin
     id 8 
     name rtibia
     direction -0.34202 -0.939693 0   
     length 7.66402   
     axis 0 0 -20   XYZ
    dof rx
    limits (-10.0 170.0)
 end
 begin
     id 9 
     name rfoot
     direction -0.137793 -0.378584 0.915253   
     length 2.27056  
     axis -90 -7.62852e-016 -20   XYZ
    dof rx rz
    limits (-45.0 90.0)
           (-20.0 70.0)
  end
  begin
     id 10 
     name rtoes
     direction -1.53493e-011 -4.22159e-011 1   
     length 1.11766   
     axis -90 -7.62852e-016 -20   XYZ
    dof rx
    limits (-90.0 20.0)
  end
  begin
     id 11 
     name lowerback
     direction -0.00732775 0.998356 -0.05685   
     length 2.16513   
     axis 0 0 0   XYZ
    dof rx ry rz
    limits (-20.0 45.0)
           (-30.0 30.0)
           (-30.0 30.0)
  end
  begin
     id 12 
     name upperback
     direction 0.0218081 0.999627 -0.0164647   
     length 2.16755   
     axis 0 0 0   XYZ
    dof rx ry rz
    limits (-20.0 45.0)
           (-30.0 30.0)
           (-30.0 30.0)
  end
  begin
     id 13 
     name thorax
     direction 0.02365 0.999661 0.0108914   
     length 2.16932   
     axis 0 0 0   XYZ
    dof rx ry rz
    limits (-20.0 45.0)
           (-30.0 30.0)
           (-30.0 30.0)
  end
  begin
     id 14 
     name lowerneck
     direction -0.0523929 0.978385 0.200044   
     length 1.63877   
     axis 0 0 0   XYZ
    dof rx ry rz
    limits (-20.0 45.0)
           (-30.0 30.0)
           (-30.0 30.0)
  end
  begin
     id 15 
     name upperneck
     direction 0.0448674 0.981321 -0.187074   
     length 1.69014   
     axis 0 0 0   XYZ
    dof rx ry rz
    limits (-20.0 45.0)
           (-30.0 30.0)
           (-30.0 30.0)
  end
  begin
     id 16
     name head
     direction 0.0199089 0.996118 -0.0857429  
     length 1.70094  
     axis 0 0 0   XYZ
    dof rx ry rz
    limits (-20.0 45.0)
           (-30.0 30.0)
           (-30.0 30.0)
  end
  begin
     id 17 
     name lclavicle
     direction 0.940366 0.30191 -0.156722  
     length 3.37521  
     axis 0 0 0   XYZ
    dof ry rz
    limits (-20.0 10.0)
           (0.0 20.0)
  end
  begin
     id 18 
     name lhumerus
     direction 1 -4.4897e-011 -1.7911e-027   
     length 5.25287   
     axis 180 -30 -90   XYZ
    dof rx ry rz
    limits (-60.0 90.0)
           (-90.0 90.0)
           (-90.0 90.0)
  end
  begin
     id 19
     name lradius
     direction 1 -4.48951e-011 1.04424e-027   
     length 3.51014   
     axis 180 -30 -90   XYZ
    dof rx
    limits (-10.0 170.0)
  end
  begin
     id 20
     name lwrist
     direction 1 -4.48997e-011 -9.5942e-028   
     length 1.75507   
     axis 8.48502e-016 90 90   XYZ
    dof ry
    limits (-180.0 0.0)
 end
  begin
     id 21 
     name lhand
     direction 1 -4.48831e-011 -1.90777e-027   
     length 0.706179   
     axis 1.22306e-015 90 90   XYZ
    dof rx rz
    limits (-90.0 90.0)
           (-45.0 45.0)
  end
  begin
     id 22 
     name lfingers
     direction 1 -4.49108e-011 -3.85244e-027   
     length 0.569339   
     axis 2.44611e-015 90 90   XYZ
    dof rx
    limits (0.0 90.0)
  end
  begin
     id 23
     name lthumb
     direction 0.707107 -6.34953e-011 0.707107   
     length 0.817461   
     axis -90 45 -1.62303e-014   XYZ
    dof rx rz
    limits (-45.0 45.0)
           (-45.0 45.0)
  end
  begin
     id 24 
     name rclavicle
     direction -0.905329 0.382405 -0.184787   
     length 3.30787  
     axis 0 0 0   XYZ 
    dof ry rz
    limits (-10.0 20.0)
           (-20.0 0.0)
  end
  begin
     id 25 
     name rhumerus
     direction -1 -4.48953e-011 -9.15316e-029  
     length 5.28721   
     axis 180 30 90   XYZ
    dof rx ry rz
    limits (-90.0 60.0)
           (-90.0 90.0)
           (-90.0 90.0)
  end
  begin
     id 26 
     name rradius
     direction -1 -4.48987e-011 9.37824e-028   
     length 3.50544   
     axis 180 30 90   XYZ
    dof rx
    limits (-10.0 170.0)
  end
  begin
     id 27 
     name rwrist
     direction -1 -4.48967e-011 -9.58414e-028   
     length 1.75272   
     axis 8.48502e-016 -90 -90   XYZ
    dof ry
    limits (-180.0 0.0)
  end
  begin
     id 28
     name rhand
     direction -1 -4.48904e-011 -1.91266e-027   
     length 0.884996   
     axis 1.22306e-015 -90 -90   XYZ
    dof rx rz
    limits (-90.0 90.0)
           (-45.0 45.0)
  end
  begin
     id 29
     name rfingers
     direction -1 -4.4909e-011 -3.85015e-027   
     length 0.713507   
     axis 2.44611e-015 -90 -90   XYZ
    dof rx
    limits (0.0 90.0)
  end
  begin
     id 30
     name rthumb
     direction -0.707107 -6.34853e-011 0.707107   
     length 1.02446   
     axis -90 -45 1.62303e-014   XYZ
    dof rx rz
    limits (-45.0 45.0)
           (-45.0 45.0)
  end
:hierarchy
  begin
    root lhipjoint rhipjoint lowerback
    lhipjoint lfemur
    lfemur ltibia
    ltibia lfoot
    lfoot ltoes
    rhipjoint rfemur
    rfemur rtibia
    rtibia rfoot
    rfoot rtoes
    lowerback upperback
    upperback thorax
    thorax lowerneck lclavicle rclavicle
    lowerneck upperneck
    upperneck head
    lclavicle lhumerus
    lhumerus lradius
    lradius lwrist
    lwrist lhand lthumb
    lhand lfingers
    rclavicle rhumerus
    rhumerus rradius
    rradius rwrist
    rwrist rhand rthumb
    rhand rfingers
  end

#!OML:ASF F:\twosubjects\two\Thursday\Session 1\justin.ASF
:FULLY-SPECIFIED
:DEGREES
33
root 4.13481 18.2091 9.75333 -172.359 2.38344 184.417
lowerback -1.24814 -0.0856108 1.1465
upperback 2.60952 -0.0993355 2.53804
thorax 3.38503 -0.00262072 1.969
lowerneck -22.2473 -5.13604 -9.83177
upperneck 19.2554 -5.79054 8.57532
head 10.3869 -2.32583 3.80289
rclavicle 4.12478e-015 -1.03368e-014
rhumerus -70.3143 -14.3352 -42.8645
rradius 16.5727
rwrist 36.1832
rhand 3.93856 3.98419
rfingers 7.12502
rthumb 29.357 -23.7176
lclavicle 4.12478e-015 -1.03368e-014
lhumerus -53.1932 14.2757 73.322
lradius 22.3191
lwrist -11.9049
lhand 4.19647 39.2501
lfingers 7.12502
lthumb 29.6033 66.9085
rfemur -15.0219 0.909749 28.1263
rtibia 30.6289
rfoot -21.4592 -1.46646
rtoes -4.81281
lfemur -29.642 9.31619 -15.1051
ltibia 64.4201
lfoot -6.15875 -6.76518
ltoes -10.1372
34
root 4.13273 18.1989 9.61896 -172.292 2.79904 184.427
lowerback -1.12928 -0.0163365 1.18137
upperback 2.6363 -0.00259796 2.54556
thorax 3.343 0.0475753 1.96092
lowerneck -22.3895 -5.07978 -9.98409
upperneck 19.2398 -5.66755 8.64644
head 10.4013 -2.27134 3.87287
rclavicle 5.06901e-015 1.0138e-014
rhumerus -70.8789 -13.9581 -42.6097
rradius 16.679
rwrist 34.8539
rhand 2.92117 1.26356
rfingers 7.12502
rthumb 28.3852 -26.6043
lclavicle 5.06901e-015 1.0138e-014
lhumerus -53.6673 14.6817 72.9476
lradius 22.2212
lwrist -12.4547
lhand 5.13359 39.2836
lfingers 7.12502
lthumb 30.4974 66.7797
rfemur -14.4811 0.825095 28.0384
rtibia 30.4367
rfoot -21.9089 -0.972772
rtoes -3.49135
lfemur -30.5048 9.7144 -15.3008
ltibia 63.5139
lfoot -6.78936 -6.3336
ltoes -11.0581
35
root 4.13078 18.1852 9.49068 -172.194 3.14653 184.657
lowerback -1.08038 0.0125728 1.3943
upperback 2.59526 0.0353621 2.6228
thorax 3.2721 0.0730565 1.92219
lowerneck -22.0168 -4.90695 -10.0689
upperneck 19.1141 -5.42658 8.6601
head 10.2656 -2.17351 3.93059
rclavicle -8.99501e-015 2.5842e-015
rhumerus -71.8714 -14.2327 -39.7745
rradius 16.3608
rwrist 37.0457
rhand 3.74513 4.29772
rfingers 7.12502
rthumb 29.1723 -23.4363
lclavicle -8.99501e-015 2.5842e-015
lhumerus -54.2768 15.0186 72.5962
lradius 22.1531
lwrist -13.0347
lhand 5.81543 39.0248
lfingers 7.12502
lthumb 31.1474 66.398
rfemur -13.9484 1.06424 28.2322
rtibia 30.2031
rfoot -22.2034 -0.98181
rtoes -4.36735
lfemur -31.4259 9.99463 -15.2323
ltibia 62.5116
lfoot -6.89712 -6.5688
ltoes -7.67795
36
root 4.12897 18.1669 9.36508 -172.031 3.46281 184.981
lowerback -1.00619 0.0196748 1.76239
upperback 2.46604 0.0422311 2.67813
thorax 3.09676 0.0857232 1.77158
lowerneck -21.4147 -4.68896 -10.0755
upperneck 18.8287 -5.14482 8.59282
head 10.022 -2.06558 3.94871
rclavicle 1.98785e-015 2.20651e-014
rhumerus -72.3731 -13.2995 -39.8704
rradius 16.5402
rwrist 35.7336
rhand 3.11351 4.17918
rfingers 7.12502
rthumb 28.569 -23.6579
lclavicle 1.98785e-015 2.20651e-014
lhumerus -55.0125 15.3423 72.0961
lradius 22.1378
lwrist -13.5403
lhand 6.02684 38.6644
lfingers 7.12502
lthumb 31.3489 65.9988
rfemur -13.3945 1.71007 28.5519
rtibia 29.8757
rfoot -22.4453 -1.46785
rtoes -5.59863
lfemur -32.3454 10.2476 -15.0475
ltibia 61.4395
lfoot -7.4821 -6.33151
ltoes -5.44389
37
root 4.12658 18.1512 9.23889 -171.921 3.97889 184.854
lowerback -0.709675 0.163765 1.63612
upperback 2.35845 0.245807 2.60436
thorax 2.81433 0.181516 1.7701
lowerneck -21.3131 -4.59292 -10.1222
upperneck 18.677 -5.0068 8.61816
head 9.937 -2.006 3.98422
rclavicle 6.21202e-015 -2.5842e-015
rhumerus -72.9496 -12.8652 -39.7693
rradius 16.7087
rwrist 34.3585
rhand 2.39058 3.22263
rfingers 7.12502
rthumb 27.8781 -24.7286
lclavicle 6.21202e-015 -2.5842e-015
lhumerus -55.4451 15.4936 71.7653
lradius 22.0338
lwrist -13.94
lhand 6.06801 38.7592
lfingers 7.12502
lthumb 31.3881 66.086
rfemur -12.764 2.11531 28.3245
rtibia 29.4435
rfoot -22.7128 -1.52815
rtoes -5.69531
lfemur -33.0845 10.574 -15.3817
ltibia 60.2264
lfoot -8.12854 -5.78636
ltoes -5.84752
38
root 4.11816 18.1484 9.11293 -171.805 4.51021 184.648
lowerback -0.41482 0.372049 1.54717
upperback 2.42036 0.532029 2.40276
thorax 2.70736 0.321963 1.61834
lowerneck -21.9933 -4.59995 -9.99459
upperneck 18.8338 -5.03875 8.75254
head 10.1197 -1.98195 4.00771
rclavicle -1.43125e-014 1.21259e-014
rhumerus -73.5255 -13.2875 -38.9808
rradius 16.7347
rwrist 33.7817
rhand 2.10816 2.94423
rfingers 7.12502
rthumb 27.608 -25.0505
lclavicle -1.43125e-014 1.21259e-014
lhumerus -55.2489 15.542 71.5306
lradius 21.7678
lwrist -14.3142
lhand 6.48206 39.2503
lfingers 7.12502
lthumb 31.7825 66.4997
rfemur -12.2134 1.85514 27.9562
rtibia 28.9839
rfoot -22.824 -0.900988
rtoes -5.58044
lfemur -33.784 10.7672 -15.8088
ltibia 58.8391
lfoot -8.08332 -5.41035
ltoes -7.21461
39
root 4.10969 18.1457 8.9833 -171.668 4.81647 184.758
lowerback -0.429579 0.450871 1.90656
upperback 2.64116 0.632326 2.22585
thorax 2.94756 0.385319 1.24074
lowerneck -22.3678 -4.58432 -9.70119
upperneck 18.5726 -5.08697 8.79137
head 10.0918 -1.97358 3.958
rclavicle 8.49804e-015 -1.09332e-015
rhumerus -73.8044 -13.9132 -38.1942
rradius 16.6964
rwrist 33.4242
rhand 1.98299 2.60829
rfingers 7.12502
rthumb 27.4883 -25.4055
lclavicle 8.49804e-015 -1.09332e-015
lhumerus -54.8206 15.8288 71.134
lradius 21.5355
lwrist -14.8199
lhand 7.16222 40.3817
lfingers 7.12502
lthumb 32.4301 67.5005
rfemur -11.6681 1.71116 27.9837
rtibia 28.5804
rfoot -22.9465 -0.790555
rtoes -6.01102
lfemur -34.47 10.7653 -15.8382
ltibia 57.339
lfoot -7.95938 -5.17406
ltoes -7.13032
